<?xml version="1.0" standalone="no"?>
<!DOCTYPE svg PUBLIC "-//W3C//DTD SVG 20010904//EN"
 "http://www.w3.org/TR/2001/REC-SVG-20010904/DTD/svg10.dtd">
<svg version="1.0" xmlns="http://www.w3.org/2000/svg"
 width="500.000000pt" height="500.000000pt" viewBox="0 0 500.000000 500.000000"
 preserveAspectRatio="xMidYMid meet">
<metadata>
Created by potrace 1.11, written by Peter Selinger 2001-2013
</metadata>
<g transform="translate(0.000000,500.000000) scale(0.100000,-0.100000)"
fill="#000000" stroke="none">
<path d="M110 2505 l0 -2405 2385 0 2385 0 0 2405 0 2405 -2385 0 -2385 0 0
-2405z m4560 0 l0 -2195 -2175 0 -2175 0 0 2195 0 2195 2175 0 2175 0 0 -2195z"/>
<path d="M657 3672 l-27 -28 0 -1045 0 -1045 28 -27 28 -27 674 0 674 0 28 27
28 27 0 186 0 186 -28 27 -28 27 -427 0 -427 0 0 832 0 832 -27 28 -27 28
-221 0 -221 0 -27 -28z m353 -872 l0 -860 455 0 455 0 0 -140 0 -140 -630 0
-630 0 0 1000 0 1000 175 0 175 0 0 -860z"/>
<path d="M2177 3672 l-27 -28 0 -1045 0 -1045 28 -27 28 -27 220 0 220 0 28
29 28 29 -4 465 c-2 256 0 458 3 449 19 -50 116 -307 139 -367 15 -38 55 -144
90 -235 105 -278 121 -314 148 -342 l26 -28 172 0 c168 0 174 1 199 24 27 25
36 47 245 596 73 190 134 347 136 349 2 2 3 -204 3 -457 l0 -462 28 -25 c28
-24 28 -24 248 -25 220 0 220 0 243 25 l23 24 0 1047 -1 1048 -27 28 -27 28
-271 0 -271 0 -26 -27 c-23 -24 -170 -399 -348 -883 -103 -281 -145 -390 -152
-390 -4 0 -13 19 -19 43 -7 23 -16 47 -19 52 -4 6 -103 267 -220 580 -145 387
-221 579 -239 598 l-25 27 -276 0 -276 0 -27 -28z m743 -772 c157 -418 287
-760 290 -760 3 0 133 342 289 760 l285 760 223 0 223 0 0 -1000 0 -1000 -170
0 -170 0 0 388 c0 213 7 553 15 756 9 203 14 370 12 372 -2 2 -134 -337 -293
-754 l-290 -757 -125 -3 -126 -3 -135 353 c-75 194 -205 534 -289 756 -135
354 -154 398 -157 362 -2 -23 4 -212 12 -421 9 -208 16 -530 16 -714 l0 -335
-175 0 -175 0 0 1000 0 1000 228 0 227 0 285 -760z"/>
</g>
</svg>
